<?xml version="1.0" encoding="UTF-8"?>
<svg width="961px" height="171px" viewBox="0 0 961 171" version="1.1" xmlns="http://www.w3.org/2000/svg" xmlns:xlink="http://www.w3.org/1999/xlink">
    <defs>
        <polygon id="path-1" points="0.000155836726 0.342 376.093917 0.342 376.093917 170.905 0.000155836726 170.905"></polygon>
    </defs>
    <g id="On-Light" stroke="none" stroke-width="1" fill="none" fill-rule="evenodd">
        <g id="ScriptDrop-Lockup---(RGB)">
            <g id="Group" transform="translate(231.896783, 0.579104)" fill="#002038">
                <path d="M216.295801,3.1100625 C212.147467,7.25839583 212.147467,13.9843958 216.295801,18.1327292 C220.444134,22.2810625 227.168551,22.2810625 231.316884,18.1327292 C235.465217,13.9843958 235.465217,7.25839583 231.316884,3.1100625 C227.168551,-1.0366875 220.444134,-1.0366875 216.295801,3.1100625" id="Fill-1"></path>
                <path d="M196.041801,45.7761458 C190.501717,45.7761458 185.438217,47.2708125 180.992217,50.2173958 C177.466134,52.5512292 174.584467,55.5215625 172.393134,59.0713958 C172.366217,58.1245625 172.329801,57.0827292 172.280717,55.9348125 C172.168301,53.3112292 171.998884,50.9552292 171.774051,48.9348958 L171.664801,47.9468958 L154.607551,47.9468958 L154.712051,49.1518125 C154.930551,51.6803958 155.098384,54.6364792 155.209217,57.9393125 C155.321634,61.3513958 155.377051,64.0145625 155.377051,66.0792292 L155.377051,127.678812 C155.377051,128.560729 156.091134,129.276396 156.973051,129.276396 L171.685384,129.276396 C172.567301,129.276396 173.282967,128.560729 173.282967,127.678812 L173.282967,86.6087292 C173.282967,83.3866458 173.718384,80.2611458 174.574967,77.3208958 C175.418884,74.4138958 176.729884,71.8172292 178.469967,69.6021458 C180.194217,67.4076458 182.398217,65.6295625 185.021801,64.3185625 C187.634301,63.0107292 190.778801,62.3488958 194.371384,62.3488958 C196.823967,62.3488958 199.148301,62.6180625 201.279467,63.1500625 L202.593634,63.4793958 L203.366301,46.7103125 L202.500217,46.4823125 C200.739551,46.0136458 198.565634,45.7761458 196.041801,45.7761458" id="Fill-3"></path>
                <path d="M216.449384,129.276396 L231.161717,129.276396 C232.043634,129.276396 232.759301,128.560729 232.759301,127.678813 L232.759301,49.5444792 C232.759301,48.6625625 232.043634,47.9468958 231.161717,47.9468958 L216.449384,47.9468958 C215.567467,47.9468958 214.853384,48.6625625 214.853384,49.5444792 L214.853384,127.678813 C214.853384,128.560729 215.567467,129.276396 216.449384,129.276396" id="Fill-4"></path>
                <path d="M290.397384,61.0141458 C294.548884,61.0141458 298.234884,61.7630625 301.354051,63.2434792 C304.476384,64.7270625 307.128467,66.7616458 309.240634,69.2933958 C311.362301,71.8393958 312.977301,74.8033958 314.044467,78.1030625 C315.116384,81.4328125 315.659467,84.9113958 315.659467,88.4438125 C315.659467,91.9809792 315.116384,95.4595625 314.044467,98.7861458 C312.978884,102.082646 311.362301,105.048229 309.240634,107.594229 C307.120551,110.135479 304.463717,112.201729 301.341384,113.735979 C298.228551,115.267062 294.547301,116.041312 290.397384,116.041312 C286.570467,116.041312 283.052301,115.292396 279.941051,113.813562 C276.807634,112.328396 274.092217,110.309646 271.864467,107.817479 C269.628801,105.317396 267.876051,102.377146 266.652134,99.0743125 C265.425051,95.7698958 264.802801,92.2501458 264.802801,88.6116458 C264.802801,84.9763125 265.425051,81.4565625 266.652134,78.1489792 C267.877634,74.8445625 269.633551,71.8726458 271.870801,69.3139792 C274.095384,66.7727292 276.810801,64.7302292 279.941051,63.2434792 C283.058634,61.7630625 286.576801,61.0141458 290.397384,61.0141458 Z M322.698967,58.1498958 C319.112717,54.2723125 314.788634,51.2069792 309.842301,49.0409792 C304.891217,46.8749792 299.335301,45.7761458 293.331301,45.7761458 C286.624301,45.7761458 280.647217,47.1995625 275.563134,50.0036458 C271.392634,52.3073958 268.007467,55.1684792 265.469384,58.5314792 L265.469384,49.5444792 C265.469384,48.6625625 264.755301,47.9468958 263.871801,47.9468958 L249.493551,47.9468958 C248.611634,47.9468958 247.897551,48.6625625 247.897551,49.5444792 L247.897551,167.735562 C247.897551,168.617479 248.611634,169.333146 249.493551,169.333146 L264.207467,169.333146 C265.089384,169.333146 265.805051,168.617479 265.805051,167.735562 L265.805051,119.079729 C268.612301,122.665979 272.209634,125.546062 276.528967,127.661396 C281.655801,130.172562 287.197467,131.445562 293.000384,131.445562 C299.232384,131.445562 304.927634,130.319812 309.932551,128.096812 C314.934301,125.873812 319.258384,122.778396 322.789217,118.899229 C326.305801,115.031146 329.068717,110.417312 330.998801,105.184396 C332.924134,99.9688958 333.899467,94.3369792 333.899467,88.4438125 C333.899467,82.5553958 332.922551,76.9488125 330.998801,71.7839792 C329.067134,66.6096458 326.275717,62.0227292 322.698967,58.1498958 L322.698967,58.1498958 Z" id="Fill-5"></path>
                <path d="M439.162634,116.041312 C435.014301,116.041312 431.363134,115.270229 428.308884,113.747062 C425.234051,112.214396 422.600967,110.152896 420.487217,107.619562 C418.362384,105.079896 416.745801,102.125396 415.683384,98.8368125 C414.613051,95.5292292 414.068384,92.0601458 414.068384,88.5277292 C414.068384,84.9968958 414.613051,81.5278125 415.683384,78.2186458 C416.745801,74.9332292 418.362384,71.9787292 420.487217,69.4374792 C422.597801,66.9104792 425.226134,64.8790625 428.294634,63.4018125 C431.355217,61.9277292 435.011134,61.1803958 439.162634,61.1803958 C442.983217,61.1803958 446.501384,61.9293125 449.620551,63.4049792 C452.750801,64.8885625 455.467801,66.9247292 457.690801,69.4580625 C459.924884,72.0040625 461.680801,74.9680625 462.907884,78.2645625 C464.134967,81.5673958 464.757217,85.0776458 464.757217,88.6955625 C464.757217,92.3150625 464.134967,95.8253125 462.909467,99.1249792 C461.682384,102.418312 459.929634,105.350646 457.698717,107.842812 C455.474134,110.323896 452.757134,112.334729 449.620551,113.819896 C446.506134,115.295562 442.986384,116.041312 439.162634,116.041312 Z M463.756551,58.1198125 C461.099717,55.0164792 457.738301,52.2963125 453.730884,50.0115625 C448.797217,47.2011458 442.942051,45.7761458 436.325301,45.7761458 C430.307051,45.7761458 424.713134,46.8749792 419.697134,49.0393958 C414.684301,51.2038125 410.319051,54.2691458 406.721717,58.1483125 C403.133884,62.0227292 400.334551,66.6096458 398.401301,71.7839792 C396.472801,76.9424792 395.494301,82.5490625 395.494301,88.4438125 C395.494301,94.3417292 396.472801,99.9736458 398.399717,105.184396 C400.332967,110.417313 403.102217,115.031146 406.631467,118.899229 C410.167051,122.779979 414.503801,125.873813 419.519801,128.096813 C424.534217,130.319813 430.245301,131.445563 436.491551,131.445563 C442.310301,131.445563 447.946967,130.145646 453.247967,127.580646 C457.665467,125.443146 461.357801,122.463313 464.258467,118.701313 L464.258467,127.678813 C464.258467,128.560729 464.972551,129.276396 465.854467,129.276396 L480.066467,129.276396 C480.949967,129.276396 481.664051,128.560729 481.664051,127.678813 L481.664051,2.4783125 C481.664051,1.59639583 480.949967,0.880729167 480.066467,0.880729167 L465.354134,0.880729167 C464.472217,0.880729167 463.756551,1.59639583 463.756551,2.4783125 L463.756551,58.1198125 L463.756551,58.1198125 Z" id="Fill-6"></path>
                <path d="M536.358717,45.7761458 C530.818634,45.7761458 525.755134,47.2708125 521.309134,50.2173958 C517.783051,52.5512292 514.901384,55.5215625 512.710051,59.0713958 C512.683134,58.1245625 512.646717,57.0827292 512.597634,55.9348125 C512.485217,53.3112292 512.315801,50.9552292 512.092551,48.9348958 L511.981717,47.9468958 L494.924467,47.9468958 L495.030551,49.1518125 C495.249051,51.6803958 495.415301,54.6364792 495.527717,57.9393125 C495.638551,61.3513958 495.693967,64.0145625 495.693967,66.0792292 L495.693967,127.678812 C495.693967,128.560729 496.408051,129.276396 497.289967,129.276396 L512.002301,129.276396 C512.884217,129.276396 513.599884,128.560729 513.599884,127.678812 L513.599884,86.6087292 C513.599884,83.3866458 514.035301,80.2611458 514.891884,77.3208958 C515.735801,74.4138958 517.046801,71.8172292 518.786884,69.6021458 C520.511134,67.4076458 522.715134,65.6295625 525.338717,64.3185625 C527.951217,63.0107292 531.095717,62.3488958 534.688301,62.3488958 C537.140884,62.3488958 539.465217,62.6180625 541.596384,63.1500625 L542.910551,63.4793958 L543.683217,46.7103125 L542.817134,46.4823125 C541.056467,46.0136458 538.882551,45.7761458 536.358717,45.7761458" id="Fill-7"></path>
                <path d="M589.289551,61.1803958 C593.346051,61.1803958 596.989301,61.9293125 600.117967,63.4049792 C603.257717,64.8885625 605.922467,66.8930625 608.036217,69.3646458 C610.164217,71.8504792 611.812467,74.7780625 612.935051,78.0682292 C614.062384,81.3789792 614.633967,84.8971458 614.633967,88.5277292 C614.633967,92.1598958 614.062384,95.6796458 612.936634,98.9872292 C611.810884,102.283729 610.161051,105.244563 608.029884,107.785813 C605.914551,110.309646 603.252967,112.341063 600.119551,113.819896 C596.994051,115.293979 593.349217,116.041313 589.289551,116.041313 C585.226717,116.041313 581.583467,115.293979 578.461134,113.819896 C575.329301,112.342646 572.667717,110.312813 570.549217,107.785813 C568.414884,105.239813 566.763467,102.280563 565.642467,98.9872292 C564.516717,95.6875625 563.945134,92.1678125 563.945134,88.5277292 C563.945134,84.8908125 564.516717,81.3710625 565.644051,78.0682292 C566.761884,74.7828125 568.411717,71.8536458 570.542884,69.3646458 C572.659801,66.8898958 575.324551,64.8853958 578.461134,63.4049792 C581.588217,61.9293125 585.231467,61.1803958 589.289551,61.1803958 Z M620.599967,57.7683125 C616.678051,54.0158125 611.980301,51.0470625 606.636551,48.9428125 C601.297551,46.8417292 595.488301,45.7761458 589.373467,45.7761458 C583.253884,45.7761458 577.446217,46.8417292 572.110384,48.9428125 C566.763467,51.0470625 562.091051,54.0189792 558.224551,57.7730625 C554.353301,61.5303125 551.267384,66.0586458 549.047551,71.2345625 C546.829301,76.4136458 545.705134,82.2038958 545.705134,88.4438125 C545.705134,94.6868958 546.827717,100.504063 549.045967,105.735396 C551.264217,110.965146 554.348551,115.550479 558.218217,119.359979 C562.087884,123.175813 566.761884,126.177813 572.110384,128.282063 C577.446217,130.381563 583.253884,131.445563 589.373467,131.445563 C595.488301,131.445563 601.297551,130.381563 606.636551,128.282063 C611.980301,126.177813 616.681217,123.178979 620.604717,119.366313 C624.532967,115.552063 627.648967,110.966729 629.865634,105.735396 C632.085467,100.504063 633.209634,94.6868958 633.209634,88.4438125 C633.209634,82.2038958 632.083884,76.4136458 629.864051,71.2345625 C627.645801,66.0570625 624.528217,61.5255625 620.599967,57.7683125 L620.599967,57.7683125 Z" id="Fill-8"></path>
                <path d="M685.171467,61.0141458 C689.322967,61.0141458 693.010551,61.7630625 696.129717,63.2434792 C699.250467,64.7270625 701.904134,66.7616458 704.014717,69.2933958 C706.136384,71.8393958 707.751384,74.8033958 708.818551,78.1030625 C709.890467,81.4328125 710.433551,84.9113958 710.433551,88.4438125 C710.433551,91.9809792 709.890467,95.4595625 708.818551,98.7861458 C707.754551,102.082646 706.136384,105.048229 704.014717,107.594229 C701.896217,110.135479 699.239384,112.201729 696.115467,113.735979 C693.004217,115.267062 689.322967,116.041312 685.171467,116.041312 C681.344551,116.041312 677.827967,115.292396 674.715134,113.813562 C671.583301,112.328396 668.866301,110.309646 666.638551,107.817479 C664.402884,105.317396 662.650134,102.377146 661.427801,99.0743125 C660.200717,95.7698958 659.576884,92.2501458 659.576884,88.6116458 C659.576884,84.9763125 660.200717,81.4565625 661.427801,78.1489792 C662.651717,74.8445625 664.407634,71.8726458 666.646467,69.3139792 C668.871051,66.7727292 671.584884,64.7302292 674.715134,63.2434792 C677.834301,61.7630625 681.350884,61.0141458 685.171467,61.0141458 Z M725.772884,71.7839792 C723.841217,66.6096458 721.049801,62.0227292 717.473051,58.1498958 C713.888384,54.2723125 709.562717,51.2069792 704.617967,49.0409792 C699.665301,46.8749792 694.109384,45.7761458 688.106967,45.7761458 C681.399967,45.7761458 675.421301,47.1995625 670.337217,50.0036458 C666.166717,52.3073958 662.781551,55.1684792 660.245051,58.5314792 L660.245051,49.5444792 C660.245051,48.6625625 659.529384,47.9468958 658.647467,47.9468958 L644.267634,47.9468958 C643.385717,47.9468958 642.671634,48.6625625 642.671634,49.5444792 L642.671634,167.735562 C642.671634,168.617479 643.385717,169.333146 644.267634,169.333146 L658.981551,169.333146 C659.863467,169.333146 660.579134,168.617479 660.579134,167.735562 L660.579134,119.079729 C663.386384,122.665979 666.983717,125.546062 671.303051,127.661396 C676.429884,130.172562 681.971551,131.445562 687.774467,131.445562 C694.006467,131.445562 699.703301,130.319812 704.706634,128.096812 C709.708384,125.873812 714.034051,122.778396 717.563301,118.899229 C721.081467,115.031146 723.842801,110.417312 725.774467,105.184396 C727.698217,99.9688958 728.675134,94.3369792 728.675134,88.4438125 C728.675134,82.5553958 727.698217,76.9488125 725.772884,71.7839792 L725.772884,71.7839792 Z" id="Fill-9"></path>
                <path d="M389.092884,61.4194792 L389.092884,49.5444792 C389.092884,48.6625625 388.378801,47.9468958 387.496884,47.9468958 L368.064634,47.9468958 L368.064634,18.8753125 C368.064634,17.4518958 366.343551,16.7393958 365.338134,17.7448125 L350.557717,32.5252292 C350.407301,32.6756458 350.323384,32.8783125 350.323384,33.0904792 L350.323384,47.9468958 L336.733634,47.9468958 C335.850134,47.9468958 335.136051,48.6625625 335.136051,49.5444792 L335.136051,61.4194792 C335.136051,62.3013958 335.850134,63.0170625 336.733634,63.0170625 L350.323384,63.0170625 L350.323384,104.801229 C350.323384,113.294229 352.421301,119.785896 356.556967,124.094146 C360.703717,128.418229 366.728301,130.611146 374.466051,130.611146 C376.956634,130.611146 379.406051,130.410063 381.746217,130.012646 C384.084801,129.610479 386.250801,129.061063 388.185634,128.378646 L388.956717,128.106313 L388.359801,112.781229 L386.854051,113.473146 C385.607967,114.044729 384.179801,114.480146 382.609134,114.766729 C381.022634,115.059646 379.516884,115.208479 378.136217,115.208479 C374.594301,115.208479 372.013467,114.301229 370.463384,112.513646 C368.870551,110.678563 368.064634,107.480229 368.064634,103.007313 L368.064634,63.0170625 L387.496884,63.0170625 C388.378801,63.0170625 389.092884,62.3013958 389.092884,61.4194792" id="Fill-10"></path>
                <path d="M132.540634,106.861146 L131.809134,107.784229 C129.810967,110.308062 127.220634,112.336312 124.109384,113.813562 C120.994967,115.292396 117.478384,116.042896 113.653051,116.042896 C109.718467,116.042896 106.174967,115.293979 103.119134,113.816729 C100.047467,112.334729 97.4175505,110.323896 95.3038005,107.836479 C93.1821338,105.347479 91.5386338,102.410396 90.4192172,99.1043958 C89.2950505,95.7873125 88.7250505,92.2564792 88.7250505,88.6116458 C88.7250505,84.9683958 89.2950505,81.4375625 90.4192172,78.1188958 C91.5386338,74.8160625 93.1821338,71.8773958 95.3038005,69.3868125 C97.4191338,66.9025625 100.023717,64.8885625 103.043134,63.4033958 C106.046717,61.9293125 109.560134,61.1803958 113.486801,61.1803958 C117.071467,61.1803958 120.493051,62.0084792 123.658134,63.6440625 C126.810551,65.2733125 129.195051,67.3078958 130.749884,69.6908125 L131.418051,70.7136458 L143.454551,58.6771458 C140.161217,54.5826458 135.762717,51.3874792 130.341384,49.1961458 C124.725301,46.9272292 118.996801,45.7761458 113.318967,45.7761458 C107.200967,45.7761458 101.423384,46.8132292 96.1445505,48.8557292 C90.8530505,50.9045625 86.2075505,53.8495625 82.3378838,57.6068125 C78.4603005,61.3688125 75.3997172,65.9303958 73.2384672,71.1648958 C71.0788005,76.3914792 69.9831338,82.2624792 69.9831338,88.6116458 C69.9831338,95.0763958 71.1073005,101.004396 73.3255505,106.235729 C75.5469672,111.473396 78.6360505,116.004896 82.5104672,119.705146 C86.3769672,123.405396 91.0208838,126.318729 96.3123838,128.367562 C101.589634,130.410062 107.424217,131.445562 113.653051,131.445562 C120.117801,131.445562 125.993551,130.319812 131.117217,128.099979 C136.259884,125.872229 140.606134,122.711896 144.035634,118.707646 L144.197134,118.519229 L132.540634,106.861146" id="Fill-12"></path>
                <path d="M55.0554672,88.3155625 C52.5918005,86.4250625 49.6594672,84.8274792 46.3455505,83.5687292 C43.0933838,82.3368958 39.5087172,81.2554792 35.6770505,80.3513958 C29.7949672,79.0451458 25.3426338,77.5916458 22.4435505,76.0336458 C19.8041338,74.6197292 18.5216338,72.5091458 18.5216338,69.5847292 C18.5216338,67.9222292 18.8826338,66.5257292 19.5935505,65.4348125 C20.3345505,64.2995625 21.3368005,63.3495625 22.5733838,62.6069792 C23.8479672,61.8422292 25.3363005,61.2690625 26.9956338,60.9048958 C28.6913838,60.5343958 30.4093005,60.3459792 32.1003005,60.3459792 C35.8908005,60.3459792 39.3567172,61.2247292 42.3998838,62.9553125 C44.6529672,64.2378125 46.5434672,65.8100625 48.0539672,67.6419792 C48.6572172,68.3718958 49.7465505,68.4368125 50.4163005,67.7670625 L59.7263005,58.4554792 C60.3438005,57.8395625 60.3453838,56.8499792 59.7500505,56.2134792 C57.0172172,53.2874792 53.5782172,50.9330625 49.4710505,49.2024792 C44.0703005,46.9288125 38.3940505,45.7761458 32.6006338,45.7761458 C28.7452172,45.7761458 24.9436338,46.2669792 21.3003838,47.2328125 C17.6302172,48.2081458 14.3115505,49.7233958 11.4346338,51.7358125 C8.52763383,53.7703958 6.14313383,56.4208958 4.3460505,59.6097292 C2.53471717,62.8223125 1.61638383,66.6840625 1.61638383,71.0873125 C1.61638383,74.9348125 2.3653005,78.2328958 3.84096717,80.8881458 C5.30238383,83.5196458 7.23088383,85.7426458 9.5710505,87.4953958 C11.8795505,89.2291458 14.4809672,90.6034792 17.2993005,91.5788125 C20.0337172,92.5288125 22.7887172,93.3521458 25.5088838,94.0329792 C32.1794672,95.5656458 37.2888838,97.2186458 40.6930505,98.9476458 C43.8233005,100.537313 45.3433005,102.888563 45.3433005,106.135979 C45.3433005,108.143646 44.9506338,109.799813 44.1732172,111.061729 C43.3815505,112.348979 42.3017172,113.403479 40.9638005,114.195146 C39.5752172,115.020063 38.0029672,115.620146 36.2913838,115.982729 C34.5497172,116.354813 32.6893005,116.543229 30.7639672,116.543229 C26.5269672,116.543229 22.5828838,115.525146 19.0441338,113.515896 C16.3952172,112.016479 14.1595505,110.233646 12.3608838,108.200646 C11.7544672,107.515063 10.6983838,107.484979 10.0492172,108.132563 L0.473217167,117.710146 C-0.141116166,118.322896 -0.164866166,119.328313 0.4463005,119.942646 C3.82671717,123.337313 7.8325505,125.995729 12.4036338,127.859313 C18.2398005,130.239063 24.3055505,131.445563 30.4298838,131.445563 C34.4990505,131.445563 38.5143838,130.986396 42.3682172,130.082313 C46.2711338,129.163979 49.7972172,127.617063 52.8467172,125.487479 C55.9215505,123.340479 58.4216338,120.549063 60.2757172,117.187646 C62.1393005,113.805646 63.0845505,109.638313 63.0845505,104.801229 C63.0845505,101.189646 62.3673005,97.9849792 60.9565505,95.2758958 C59.5521338,92.5842292 57.5666338,90.2424792 55.0554672,88.3155625" id="Fill-11"></path>
            </g>
            <g id="Group-17">
                <mask id="mask-2" fill="white">
                    <use xlink:href="#path-1"></use>
                </mask>
                <g id="Clip-13"></g>
                <path d="M93.6145833,170.694417 C93.2076667,171.102917 92.54425,171.102917 92.1373333,170.694417 L16.4191667,94.9778333 C-3.98366667,74.5734167 -5.88683333,39.4408333 13.6103333,18.1703333 C24.13,6.6975 38.6064167,0.342 54.05975,0.342 C68.6960833,0.342 82.45525,6.042 92.8039167,16.3890833 L80.4855833,28.7058333 C73.4286667,21.6473333 64.0426667,17.7586667 54.05975,17.7586667 C42.7009167,17.7586667 32.11475,22.7936667 24.8488333,31.806 C12.7695833,46.7843333 14.8089167,68.7356667 28.4160833,82.3428333 L104.450917,158.377667 C104.859417,158.786167 104.859417,159.448 104.450917,159.8565 L93.6145833,170.694417" id="Fill-14" fill="#002038" mask="url(#mask-2)"></path>
                <path d="M134.812917,99.08025 C130.6535,103.239667 130.6535,109.983083 134.812917,114.144083 C138.972333,118.3035 145.717333,118.3035 149.875167,114.144083 C154.036167,109.983083 154.036167,103.239667 149.875167,99.08025 C145.717333,94.91925 138.972333,94.91925 134.812917,99.08025" id="Fill-15" fill="#34A4F7" mask="url(#mask-2)"></path>
                <path d="M102.2295,63.3428333 C97.6615833,70.0688333 87.9003333,70.0688333 83.3324167,63.3428333 C80.7975,59.6061667 80.7990833,54.4761667 83.33875,50.7426667 C85.6250833,47.386 89.2018333,45.70925 92.7801667,45.70925 C96.3600833,45.70925 99.9368333,47.386 102.221583,50.7426667 C104.762833,54.4761667 104.766,59.6061667 102.2295,63.3428333 Z M183.589083,38.3198333 C182.852833,35.8735833 181.887,33.49225 180.716917,31.22175 C162.603583,-3.93458333 118.281333,-8.87616667 92.7880833,16.3748333 L92.78175,16.3700833 L72.44225,36.7095833 L71.3101667,38.0934167 C62.14425,49.2970833 61.7990833,65.854 71.6015,76.5066667 C77.2999167,82.6990833 85.0408333,85.7960833 92.7801667,85.7960833 C100.145833,85.7960833 107.5115,82.992 113.118083,77.3854167 C124.31225,66.19125 124.328083,47.9924167 113.1735,36.7729167 C113.1545,36.7539167 113.141833,36.7285833 113.122833,36.7095833 L105.10325,28.69 C121.288083,12.73 148.534083,14.5460833 162.191917,34.1635833 C165.208167,38.4971667 167.260167,43.472 168.148417,48.6748333 C170.164,60.4785833 166.725,71.98625 158.94925,80.48875 C158.306417,81.19175 158.300083,82.2573333 158.974583,82.93025 L168.821333,92.7785833 C169.514833,93.4720833 170.654833,93.4720833 171.326167,92.7564167 C184.687917,78.5190833 189.618417,58.3379167 183.589083,38.3198333 L183.589083,38.3198333 Z" id="Fill-16" fill="#34A4F7" mask="url(#mask-2)"></path>
            </g>
        </g>
    </g>
</svg>
